<?xml version="1.0" encoding="UTF-8"?>
<!DOCTYPE svg PUBLIC "-//W3C//DTD SVG 1.1//EN" "http://www.w3.org/Graphics/SVG/1.1/DTD/svg11.dtd">
<!-- Creator: CorelDRAW -->
<svg xmlns="http://www.w3.org/2000/svg" xml:space="preserve" width="240px" height="128px" version="1.1" style="shape-rendering:geometricPrecision; text-rendering:geometricPrecision; image-rendering:optimizeQuality; fill-rule:evenodd; clip-rule:evenodd"
viewBox="0 0 240 128.35"
 xmlns:xlink="http://www.w3.org/1999/xlink"
 xmlns:xodm="http://www.corel.com/coreldraw/odm/2003">
 <defs>
  <style type="text/css">
   <![CDATA[
    .fil0 {fill:black;fill-rule:nonzero}
   ]]>
  </style>
 </defs>
 <g id="Layer_x0020_1">
  <metadata id="CorelCorpID_0Corel-Layer"/>
  <path class="fil0" d="M11.161 60.012l0 -24.859 1.437 0 21.73 24.859 13.021 0 -27.057 -30.016 26.127 -29.171 -12.598 0 -21.223 24.267 -1.437 0 0 -24.267 -9.724 0 0 59.187 9.724 0zm208.885 69.163c11.33,0 16.319,-6.426 18.771,-11.161l-7.694 -3.889c-1.692,3.635 -4.482,6.933 -10.823,6.933 -6.68,0 -11.669,-4.482 -11.922,-11.33l31.622 0 0 -3.382c0,-12.768 -8.117,-21.307 -20.208,-21.307 -12.344,0 -20.8,8.539 -20.8,21.561l0 1.014c0,13.021 8.456,21.561 21.054,21.561zm-11.584 -26.465c0.846,-5.834 4.904,-9.554 11.246,-9.554 6.172,0 10.4,3.72 10.907,9.554l-22.153 0zm-14.733 25.281l0 -51.069 20.863 0c5.327,0 8.625,-3.382 8.625,-8.709l0 -49.97 -9.216 0 0 21.138c0,8.709 -4.482,13.444 -11.415,13.444 -6.257,0 -9.893,-3.213 -9.893,-10.231l0 -24.351 -9.216 0 0 25.112c0,10.569 6.764,17.333 16.318,17.333 7.863,0 11.415,-3.467 12.937,-6.595l1.353 0 0 12.175c0,1.692 -0.761,2.537 -2.368,2.537l-17.988 0 -5.179 0 -4.037 0 0 59.186 9.216 0zm-21.159 -47.18c3.551,0 6.257,-2.536 6.257,-6.172 0,-3.72 -2.706,-6.172 -6.257,-6.172 -3.551,0 -6.172,2.452 -6.172,6.172 0,3.636 2.621,6.172 6.172,6.172zm4.65 47.18l0 -41.768 -9.216 0 0 41.768 9.216 0zm-31.136 1.184c10.485,0 17.334,-4.819 17.334,-13.359 0,-8.54 -7.272,-11.246 -16.488,-12.937l-2.706 -0.422c-4.397,-0.761 -7.102,-2.03 -7.102,-5.243 0,-2.959 2.705,-4.735 7.271,-4.735 4.65,0 7.948,1.861 8.878,6.68l8.625 -2.537c-1.86,-7.017 -8.117,-11.583 -17.503,-11.583 -9.808,0 -16.234,4.566 -16.234,12.598 0,7.948 6.933,11.245 15.473,12.852l2.79 0.423c5.327,1.014 7.948,2.283 7.948,5.411 0,3.213 -2.874,5.411 -8.286,5.411 -5.326,0 -9.892,-2.113 -10.992,-8.793l-8.624 2.114c1.438,9.301 8.878,14.12 19.616,14.12zm-41.874 0c11.33,0 16.319,-6.426 18.771,-11.161l-7.694 -3.889c-1.692,3.635 -4.482,6.933 -10.824,6.933 -6.679,0 -11.668,-4.482 -11.921,-11.33l31.622 0 0 -3.382c0,-12.768 -8.117,-21.307 -20.208,-21.307 -12.344,0 -20.8,8.539 -20.8,21.561l0 1.014c0,13.021 8.456,21.561 21.054,21.561zm-11.584 -26.465c0.846,-5.834 4.904,-9.554 11.246,-9.554 6.172,0 10.4,3.72 10.907,9.554l-22.153 0zm-11.942 25.281l0 -7.779 -8.54 0c-1.607,0 -2.368,-0.845 -2.368,-2.536l0 -23.675 12.176 0 0 -7.778 -12.176 0 0 -13.613 -9.3 0 0 13.613 -11.161 0 0 7.778 11.161 0 0 25.281c0,5.327 3.382,8.709 8.624,8.709l11.584 0zm-56.756 1.184c14.628,0 23.929,-8.455 23.929,-23.759l0 -14.036c0,-15.388 -9.301,-23.759 -23.929,-23.759 -14.628,0 -23.928,8.371 -23.928,23.759l0 14.036c0,15.304 9.3,23.759 23.928,23.759zm0 -8.709c-8.963,0 -14.205,-5.665 -14.205,-14.797l0 -14.542c0,-9.132 5.242,-14.797 14.205,-14.797 8.963,0 14.205,5.665 14.205,14.797l0 14.542c0,9.132 -5.242,14.797 -14.205,14.797zm123.255 -60.454l0 -21.138c0,-8.625 4.482,-13.444 11.415,-13.444 6.257,0 9.893,3.298 9.893,10.231l0 24.351 9.216 0 0 -25.028c0,-10.653 -6.764,-17.417 -16.319,-17.417 -7.863,0 -11.414,3.466 -12.936,6.764l-1.438 0 0 -6.088 -9.047 0 0 41.769 9.216 0zm-46.609 0l0 -21.138c0,-8.625 4.481,-13.444 11.415,-13.444 6.257,0 9.892,3.298 9.892,10.231l0 24.351 9.216 0 0 -25.028c0,-10.653 -6.763,-17.417 -16.318,-17.417 -7.863,0 -11.415,3.466 -12.937,6.764l-1.437 0 0 -6.088 -9.047 0 0 41.769 9.216 0zm-34.011 1.183c11.331,0 16.319,-6.426 18.771,-11.161l-7.694 -3.889c-1.691,3.636 -4.481,6.933 -10.823,6.933 -6.68,0 -11.668,-4.481 -11.922,-11.33l31.623 0 0 -3.382c0,-12.767 -8.117,-21.307 -20.208,-21.307 -12.345,0 -20.8,8.54 -20.8,21.561l0 1.015c0,13.02 8.455,21.56 21.053,21.56zm-11.583 -26.464c0.845,-5.835 4.904,-9.555 11.245,-9.555 6.172,0 10.4,3.72 10.907,9.555l-22.152 0z"/>
 </g>
</svg>
