<svg width="122" height="63" viewBox="0 0 122 63" fill="none" xmlns="http://www.w3.org/2000/svg">
<path d="M1.95445 28.6795V1.53601H5.21167V13.3628H5.75454L17.2324 1.53601H21.5753L8.35256 14.9526L22.0406 28.6795H17.5813L5.75454 16.62H5.21167V28.6795H1.95445Z" fill="white"/>
<path d="M33.0005 29.2224C31.0876 29.2224 29.4072 28.8217 27.9596 28.0203C26.5119 27.1931 25.3874 26.0427 24.586 24.5692C23.7847 23.0957 23.384 21.3895 23.384 19.4507V18.9854C23.384 17.0207 23.7847 15.3016 24.586 13.8281C25.3874 12.3546 26.499 11.2172 27.9208 10.4158C29.3426 9.58858 30.9712 9.17496 32.8066 9.17496C34.5904 9.17496 36.1673 9.56272 37.5374 10.3383C38.9075 11.0879 39.9803 12.1737 40.7558 13.5955C41.5313 15.0173 41.9191 16.6847 41.9191 18.5976V19.9936H26.4473C26.5249 22.0358 27.1841 23.6386 28.4249 24.8018C29.6658 25.9393 31.2168 26.508 33.0781 26.508C34.7067 26.508 35.9605 26.1332 36.8394 25.3835C37.7183 24.6338 38.3904 23.742 38.8558 22.7079L41.4926 23.9875C41.1048 24.7889 40.5619 25.5903 39.8639 26.3917C39.1918 27.1931 38.3 27.8652 37.1884 28.4081C36.1026 28.9509 34.7067 29.2224 33.0005 29.2224ZM26.4861 17.4731H38.817C38.7136 15.7152 38.1061 14.3451 36.9945 13.3628C35.9088 12.3805 34.5128 11.8893 32.8066 11.8893C31.0746 11.8893 29.6528 12.3805 28.5412 13.3628C27.4297 14.3451 26.7446 15.7152 26.4861 17.4731Z" fill="white"/>
<path d="M46.6342 28.6795V9.71783H49.62V12.9363H50.1628C50.5764 12.0315 51.2744 11.2172 52.2568 10.4934C53.2649 9.74368 54.7385 9.36884 56.6773 9.36884C58.0991 9.36884 59.3658 9.66613 60.4774 10.2607C61.6148 10.8553 62.5196 11.7342 63.1917 12.8975C63.8638 14.0608 64.1999 15.4955 64.1999 17.2017V28.6795H61.1366V17.4343C61.1366 15.5472 60.6583 14.1771 59.7018 13.324C58.7712 12.471 57.5045 12.0444 55.9017 12.0444C54.0663 12.0444 52.567 12.639 51.4037 13.8281C50.2662 15.0173 49.6975 16.7881 49.6975 19.1405V28.6795H46.6342Z" fill="white"/>
<path d="M69.7868 28.6795V9.71783H72.7726V12.9363H73.3155C73.7291 12.0315 74.4271 11.2172 75.4094 10.4934C76.4176 9.74368 77.8911 9.36884 79.8299 9.36884C81.2517 9.36884 82.5184 9.66613 83.63 10.2607C84.7674 10.8553 85.6722 11.7342 86.3444 12.8975C87.0165 14.0608 87.3525 15.4955 87.3525 17.2017V28.6795H84.2892V17.4343C84.2892 15.5472 83.811 14.1771 82.8545 13.324C81.9238 12.471 80.6572 12.0444 79.0544 12.0444C77.219 12.0444 75.7196 12.639 74.5563 13.8281C73.4189 15.0173 72.8502 16.7881 72.8502 19.1405V28.6795H69.7868Z" fill="white"/>
<path d="M94.9244 36.4348V33.7204H105.782C106.531 33.7204 106.906 33.3327 106.906 32.5571V25.6549H106.363C106.105 26.1978 105.704 26.7407 105.161 27.2835C104.644 27.8006 103.959 28.2271 103.106 28.5632C102.253 28.8734 101.18 29.0285 99.8877 29.0285C98.5176 29.0285 97.2509 28.7312 96.0877 28.1366C94.9502 27.542 94.0454 26.6631 93.3733 25.4998C92.727 24.3365 92.4039 22.9147 92.4039 21.2344V9.71783H95.4672V21.0018C95.4672 22.863 95.9325 24.2202 96.8632 25.0733C97.8197 25.9264 99.0993 26.3529 100.702 26.3529C102.512 26.3529 103.998 25.7583 105.161 24.5692C106.325 23.38 106.906 21.6093 106.906 19.2568V9.71783H109.97V33.1C109.97 34.134 109.672 34.9483 109.078 35.5429C108.509 36.1375 107.669 36.4348 106.557 36.4348H94.9244Z" fill="white"/>
<path d="M11.8037 61.536C8.57229 61.536 5.9872 60.6054 4.04838 58.7441C2.13541 56.857 1.17892 54.1168 1.17892 50.5235V44.3193C1.17892 40.726 2.13541 37.9987 4.04838 36.1375C5.9872 34.2504 8.57229 33.3068 11.8037 33.3068C15.0609 33.3068 17.646 34.2504 19.5589 36.1375C21.4978 37.9987 22.4672 40.726 22.4672 44.3193V50.5235C22.4672 54.1168 21.4978 56.857 19.5589 58.7441C17.646 60.6054 15.0609 61.536 11.8037 61.536ZM11.8037 58.6278C14.1561 58.6278 15.9786 57.9298 17.2711 56.5339C18.5637 55.1121 19.2099 53.1474 19.2099 50.6398V44.203C19.2099 41.6954 18.5637 39.7437 17.2711 38.3477C15.9786 36.9259 14.1561 36.215 11.8037 36.215C9.47707 36.215 7.66751 36.9259 6.37496 38.3477C5.08241 39.7437 4.43614 41.6954 4.43614 44.203V50.6398C4.43614 53.1474 5.08241 55.1121 6.37496 56.5339C7.66751 57.9298 9.47707 58.6278 11.8037 58.6278Z" fill="white"/>
<path d="M34.3616 60.9931C33.2759 60.9931 32.4357 60.6959 31.8412 60.1013C31.2725 59.5067 30.9881 58.6924 30.9881 57.6584V44.7071H25.288V42.0315H30.9881V35.2844H34.0514V42.0315H40.2556V44.7071H34.0514V57.1931C34.0514 57.9686 34.4263 58.3563 35.1759 58.3563H39.4026V60.9931H34.3616Z" fill="white"/>
<path d="M52.5936 61.536C50.6807 61.536 49.0004 61.1353 47.5527 60.3339C46.105 59.5067 44.9805 58.3563 44.1792 56.8828C43.3778 55.4093 42.9771 53.7032 42.9771 51.7644V51.299C42.9771 49.3344 43.3778 47.6153 44.1792 46.1418C44.9805 44.6683 46.0921 43.5308 47.5139 42.7295C48.9357 41.9022 50.5643 41.4886 52.3997 41.4886C54.1835 41.4886 55.7604 41.8764 57.1305 42.6519C58.5006 43.4016 59.5734 44.4873 60.3489 45.9091C61.1244 47.3309 61.5122 48.9983 61.5122 50.9113V52.3072H46.0404C46.118 54.3495 46.7772 55.9522 48.018 57.1155C49.2589 58.2529 50.8099 58.8217 52.6712 58.8217C54.2998 58.8217 55.5536 58.4468 56.4325 57.6971C57.3114 56.9475 57.9836 56.0556 58.4489 55.0216L61.0857 56.3012C60.6979 57.1026 60.155 57.904 59.457 58.7053C58.7849 59.5067 57.8931 60.1788 56.7815 60.7217C55.6957 61.2646 54.2998 61.536 52.5936 61.536ZM46.0792 49.7868H58.4101C58.3067 48.0289 57.6992 46.6588 56.5876 45.6765C55.5019 44.6941 54.1059 44.203 52.3997 44.203C50.6677 44.203 49.2459 44.6941 48.1343 45.6765C47.0228 46.6588 46.3377 48.0289 46.0792 49.7868Z" fill="white"/>
<path d="M73.8662 61.536C71.5138 61.536 69.5233 60.9931 67.8947 59.9074C66.2919 58.8217 65.3225 57.1026 64.9864 54.7501L67.8947 54.0909C68.1015 55.3318 68.4892 56.3141 69.058 57.0379C69.6267 57.7359 70.3247 58.24 71.1519 58.5502C72.005 58.8346 72.9097 58.9768 73.8662 58.9768C75.288 58.9768 76.4125 58.6924 77.2398 58.1237C78.067 57.555 78.4806 56.7924 78.4806 55.8359C78.4806 54.8535 78.0799 54.1685 77.2786 53.7807C76.503 53.3671 75.4302 53.0311 74.0601 52.7725L72.4703 52.5011C71.2553 52.2943 70.1437 51.9712 69.1355 51.5317C68.1273 51.0922 67.3259 50.4977 66.7314 49.748C66.1368 48.9983 65.8395 48.0548 65.8395 46.9173C65.8395 45.2112 66.4987 43.8798 67.8171 42.9233C69.1355 41.9669 70.8805 41.4886 73.0519 41.4886C75.1976 41.4886 76.9296 41.9798 78.248 42.9621C79.5922 43.9186 80.4582 45.2758 80.846 47.0336L77.9765 47.7704C77.7439 46.4003 77.1881 45.4438 76.3091 44.9009C75.4302 44.3322 74.3445 44.0479 73.0519 44.0479C71.7594 44.0479 70.7383 44.2934 69.9886 44.7846C69.2389 45.2499 68.8641 45.9479 68.8641 46.8785C68.8641 47.7833 69.2131 48.4554 69.911 48.8949C70.6349 49.3085 71.5914 49.6187 72.7805 49.8255L74.3703 50.097C75.7146 50.3296 76.9166 50.6528 77.9765 51.0664C79.0623 51.4541 79.9154 52.0229 80.5358 52.7725C81.182 53.5222 81.5052 54.5046 81.5052 55.7195C81.5052 57.5808 80.8072 59.0155 79.4113 60.0237C78.0412 61.0319 76.1928 61.536 73.8662 61.536Z" fill="white"/>
<path d="M86.0476 60.9931V42.0315H89.1109V60.9931H86.0476ZM87.5987 39.0845C86.9265 39.0845 86.3578 38.8647 85.8925 38.4253C85.453 37.9858 85.2333 37.43 85.2333 36.7579C85.2333 36.0599 85.453 35.4912 85.8925 35.0517C86.3578 34.6123 86.9265 34.3925 87.5987 34.3925C88.2708 34.3925 88.8266 34.6123 89.266 35.0517C89.7055 35.4912 89.9252 36.0599 89.9252 36.7579C89.9252 37.43 89.7055 37.9858 89.266 38.4253C88.8266 38.8647 88.2708 39.0845 87.5987 39.0845Z" fill="white"/>
<path d="M94.9242 60.9931V33.8497H97.9875V60.9931H94.9242Z" fill="white"/>
<path d="M112.487 61.536C110.574 61.536 108.893 61.1353 107.446 60.3339C105.998 59.5067 104.874 58.3563 104.072 56.8828C103.271 55.4093 102.87 53.7032 102.87 51.7644V51.299C102.87 49.3344 103.271 47.6153 104.072 46.1418C104.874 44.6683 105.985 43.5308 107.407 42.7295C108.829 41.9022 110.457 41.4886 112.293 41.4886C114.076 41.4886 115.653 41.8764 117.024 42.6519C118.394 43.4016 119.466 44.4873 120.242 45.9091C121.017 47.3309 121.405 48.9983 121.405 50.9113V52.3072H105.933C106.011 54.3495 106.67 55.9522 107.911 57.1155C109.152 58.2529 110.703 58.8217 112.564 58.8217C114.193 58.8217 115.447 58.4468 116.326 57.6971C117.204 56.9475 117.877 56.0556 118.342 55.0216L120.979 56.3012C120.591 57.1026 120.048 57.904 119.35 58.7053C118.678 59.5067 117.786 60.1788 116.675 60.7217C115.589 61.2646 114.193 61.536 112.487 61.536ZM105.972 49.7868H118.303C118.2 48.0289 117.592 46.6588 116.481 45.6765C115.395 44.6941 113.999 44.203 112.293 44.203C110.561 44.203 109.139 44.6941 108.027 45.6765C106.916 46.6588 106.231 48.0289 105.972 49.7868Z" fill="white"/>
<path d="M1.95445 28.6795V1.53601H5.21167V13.3628H5.75454L17.2324 1.53601H21.5753L8.35256 14.9526L22.0406 28.6795H17.5813L5.75454 16.62H5.21167V28.6795H1.95445Z" stroke="white" stroke-width="1.14"/>
<path d="M33.0005 29.2224C31.0876 29.2224 29.4072 28.8217 27.9596 28.0203C26.5119 27.1931 25.3874 26.0427 24.586 24.5692C23.7847 23.0957 23.384 21.3895 23.384 19.4507V18.9854C23.384 17.0207 23.7847 15.3016 24.586 13.8281C25.3874 12.3546 26.499 11.2172 27.9208 10.4158C29.3426 9.58858 30.9712 9.17496 32.8066 9.17496C34.5904 9.17496 36.1673 9.56272 37.5374 10.3383C38.9075 11.0879 39.9803 12.1737 40.7558 13.5955C41.5313 15.0173 41.9191 16.6847 41.9191 18.5976V19.9936H26.4473C26.5249 22.0358 27.1841 23.6386 28.4249 24.8018C29.6658 25.9393 31.2168 26.508 33.0781 26.508C34.7067 26.508 35.9605 26.1332 36.8394 25.3835C37.7183 24.6338 38.3904 23.742 38.8558 22.7079L41.4926 23.9875C41.1048 24.7889 40.5619 25.5903 39.8639 26.3917C39.1918 27.1931 38.3 27.8652 37.1884 28.4081C36.1026 28.9509 34.7067 29.2224 33.0005 29.2224ZM26.4861 17.4731H38.817C38.7136 15.7152 38.1061 14.3451 36.9945 13.3628C35.9088 12.3805 34.5128 11.8893 32.8066 11.8893C31.0746 11.8893 29.6528 12.3805 28.5412 13.3628C27.4297 14.3451 26.7446 15.7152 26.4861 17.4731Z" stroke="white" stroke-width="1.14"/>
<path d="M46.6342 28.6795V9.71783H49.62V12.9363H50.1628C50.5764 12.0315 51.2744 11.2172 52.2568 10.4934C53.2649 9.74368 54.7385 9.36884 56.6773 9.36884C58.0991 9.36884 59.3658 9.66613 60.4774 10.2607C61.6148 10.8553 62.5196 11.7342 63.1917 12.8975C63.8638 14.0608 64.1999 15.4955 64.1999 17.2017V28.6795H61.1366V17.4343C61.1366 15.5472 60.6583 14.1771 59.7018 13.324C58.7712 12.471 57.5045 12.0444 55.9017 12.0444C54.0663 12.0444 52.567 12.639 51.4037 13.8281C50.2662 15.0173 49.6975 16.7881 49.6975 19.1405V28.6795H46.6342Z" stroke="white" stroke-width="1.14"/>
<path d="M69.7868 28.6795V9.71783H72.7726V12.9363H73.3155C73.7291 12.0315 74.4271 11.2172 75.4094 10.4934C76.4176 9.74368 77.8911 9.36884 79.8299 9.36884C81.2517 9.36884 82.5184 9.66613 83.63 10.2607C84.7674 10.8553 85.6722 11.7342 86.3444 12.8975C87.0165 14.0608 87.3525 15.4955 87.3525 17.2017V28.6795H84.2892V17.4343C84.2892 15.5472 83.811 14.1771 82.8545 13.324C81.9238 12.471 80.6572 12.0444 79.0544 12.0444C77.219 12.0444 75.7196 12.639 74.5563 13.8281C73.4189 15.0173 72.8502 16.7881 72.8502 19.1405V28.6795H69.7868Z" stroke="white" stroke-width="1.14"/>
<path d="M94.9244 36.4348V33.7204H105.782C106.531 33.7204 106.906 33.3327 106.906 32.5571V25.6549H106.363C106.105 26.1978 105.704 26.7407 105.161 27.2835C104.644 27.8006 103.959 28.2271 103.106 28.5632C102.253 28.8734 101.18 29.0285 99.8877 29.0285C98.5176 29.0285 97.2509 28.7312 96.0877 28.1366C94.9502 27.542 94.0454 26.6631 93.3733 25.4998C92.727 24.3365 92.4039 22.9147 92.4039 21.2344V9.71783H95.4672V21.0018C95.4672 22.863 95.9325 24.2202 96.8632 25.0733C97.8197 25.9264 99.0993 26.3529 100.702 26.3529C102.512 26.3529 103.998 25.7583 105.161 24.5692C106.325 23.38 106.906 21.6093 106.906 19.2568V9.71783H109.97V33.1C109.97 34.134 109.672 34.9483 109.078 35.5429C108.509 36.1375 107.669 36.4348 106.557 36.4348H94.9244Z" stroke="white" stroke-width="1.14"/>
<path d="M11.8037 61.536C8.57229 61.536 5.9872 60.6054 4.04838 58.7441C2.13541 56.857 1.17892 54.1168 1.17892 50.5235V44.3193C1.17892 40.726 2.13541 37.9987 4.04838 36.1375C5.9872 34.2504 8.57229 33.3068 11.8037 33.3068C15.0609 33.3068 17.646 34.2504 19.5589 36.1375C21.4978 37.9987 22.4672 40.726 22.4672 44.3193V50.5235C22.4672 54.1168 21.4978 56.857 19.5589 58.7441C17.646 60.6054 15.0609 61.536 11.8037 61.536ZM11.8037 58.6278C14.1561 58.6278 15.9786 57.9298 17.2711 56.5339C18.5637 55.1121 19.2099 53.1474 19.2099 50.6398V44.203C19.2099 41.6954 18.5637 39.7437 17.2711 38.3477C15.9786 36.9259 14.1561 36.215 11.8037 36.215C9.47707 36.215 7.66751 36.9259 6.37496 38.3477C5.08241 39.7437 4.43614 41.6954 4.43614 44.203V50.6398C4.43614 53.1474 5.08241 55.1121 6.37496 56.5339C7.66751 57.9298 9.47707 58.6278 11.8037 58.6278Z" stroke="white" stroke-width="1.14"/>
<path d="M34.3616 60.9931C33.2759 60.9931 32.4357 60.6959 31.8412 60.1013C31.2725 59.5067 30.9881 58.6924 30.9881 57.6584V44.7071H25.288V42.0315H30.9881V35.2844H34.0514V42.0315H40.2556V44.7071H34.0514V57.1931C34.0514 57.9686 34.4263 58.3563 35.1759 58.3563H39.4026V60.9931H34.3616Z" stroke="white" stroke-width="1.14"/>
<path d="M52.5936 61.536C50.6807 61.536 49.0004 61.1353 47.5527 60.3339C46.105 59.5067 44.9805 58.3563 44.1792 56.8828C43.3778 55.4093 42.9771 53.7032 42.9771 51.7644V51.299C42.9771 49.3344 43.3778 47.6153 44.1792 46.1418C44.9805 44.6683 46.0921 43.5308 47.5139 42.7295C48.9357 41.9022 50.5643 41.4886 52.3997 41.4886C54.1835 41.4886 55.7604 41.8764 57.1305 42.6519C58.5006 43.4016 59.5734 44.4873 60.3489 45.9091C61.1244 47.3309 61.5122 48.9983 61.5122 50.9113V52.3072H46.0404C46.118 54.3495 46.7772 55.9522 48.018 57.1155C49.2589 58.2529 50.8099 58.8217 52.6712 58.8217C54.2998 58.8217 55.5536 58.4468 56.4325 57.6971C57.3114 56.9475 57.9836 56.0556 58.4489 55.0216L61.0857 56.3012C60.6979 57.1026 60.155 57.904 59.457 58.7053C58.7849 59.5067 57.8931 60.1788 56.7815 60.7217C55.6957 61.2646 54.2998 61.536 52.5936 61.536ZM46.0792 49.7868H58.4101C58.3067 48.0289 57.6992 46.6588 56.5876 45.6765C55.5019 44.6941 54.1059 44.203 52.3997 44.203C50.6677 44.203 49.2459 44.6941 48.1343 45.6765C47.0228 46.6588 46.3377 48.0289 46.0792 49.7868Z" stroke="white" stroke-width="1.14"/>
<path d="M73.8662 61.536C71.5138 61.536 69.5233 60.9931 67.8947 59.9074C66.2919 58.8217 65.3225 57.1026 64.9864 54.7501L67.8947 54.0909C68.1015 55.3318 68.4892 56.3141 69.058 57.0379C69.6267 57.7359 70.3247 58.24 71.1519 58.5502C72.005 58.8346 72.9097 58.9768 73.8662 58.9768C75.288 58.9768 76.4125 58.6924 77.2398 58.1237C78.067 57.555 78.4806 56.7924 78.4806 55.8359C78.4806 54.8535 78.0799 54.1685 77.2786 53.7807C76.503 53.3671 75.4302 53.0311 74.0601 52.7725L72.4703 52.5011C71.2553 52.2943 70.1437 51.9712 69.1355 51.5317C68.1273 51.0922 67.3259 50.4977 66.7314 49.748C66.1368 48.9983 65.8395 48.0548 65.8395 46.9173C65.8395 45.2112 66.4987 43.8798 67.8171 42.9233C69.1355 41.9669 70.8805 41.4886 73.0519 41.4886C75.1976 41.4886 76.9296 41.9798 78.248 42.9621C79.5922 43.9186 80.4582 45.2758 80.846 47.0336L77.9765 47.7704C77.7439 46.4003 77.1881 45.4438 76.3091 44.9009C75.4302 44.3322 74.3445 44.0479 73.0519 44.0479C71.7594 44.0479 70.7383 44.2934 69.9886 44.7846C69.2389 45.2499 68.8641 45.9479 68.8641 46.8785C68.8641 47.7833 69.2131 48.4554 69.911 48.8949C70.6349 49.3085 71.5914 49.6187 72.7805 49.8255L74.3703 50.097C75.7146 50.3296 76.9166 50.6528 77.9765 51.0664C79.0623 51.4541 79.9154 52.0229 80.5358 52.7725C81.182 53.5222 81.5052 54.5046 81.5052 55.7195C81.5052 57.5808 80.8072 59.0155 79.4113 60.0237C78.0412 61.0319 76.1928 61.536 73.8662 61.536Z" stroke="white" stroke-width="1.14"/>
<path d="M86.0476 60.9931V42.0315H89.1109V60.9931H86.0476ZM87.5987 39.0845C86.9265 39.0845 86.3578 38.8647 85.8925 38.4253C85.453 37.9858 85.2333 37.43 85.2333 36.7579C85.2333 36.0599 85.453 35.4912 85.8925 35.0517C86.3578 34.6123 86.9265 34.3925 87.5987 34.3925C88.2708 34.3925 88.8266 34.6123 89.266 35.0517C89.7055 35.4912 89.9252 36.0599 89.9252 36.7579C89.9252 37.43 89.7055 37.9858 89.266 38.4253C88.8266 38.8647 88.2708 39.0845 87.5987 39.0845Z" stroke="white" stroke-width="1.14"/>
<path d="M94.9242 60.9931V33.8497H97.9875V60.9931H94.9242Z" stroke="white" stroke-width="1.14"/>
<path d="M112.487 61.536C110.574 61.536 108.893 61.1353 107.446 60.3339C105.998 59.5067 104.874 58.3563 104.072 56.8828C103.271 55.4093 102.87 53.7032 102.87 51.7644V51.299C102.87 49.3344 103.271 47.6153 104.072 46.1418C104.874 44.6683 105.985 43.5308 107.407 42.7295C108.829 41.9022 110.457 41.4886 112.293 41.4886C114.076 41.4886 115.653 41.8764 117.024 42.6519C118.394 43.4016 119.466 44.4873 120.242 45.9091C121.017 47.3309 121.405 48.9983 121.405 50.9113V52.3072H105.933C106.011 54.3495 106.67 55.9522 107.911 57.1155C109.152 58.2529 110.703 58.8217 112.564 58.8217C114.193 58.8217 115.447 58.4468 116.326 57.6971C117.204 56.9475 117.877 56.0556 118.342 55.0216L120.979 56.3012C120.591 57.1026 120.048 57.904 119.35 58.7053C118.678 59.5067 117.786 60.1788 116.675 60.7217C115.589 61.2646 114.193 61.536 112.487 61.536ZM105.972 49.7868H118.303C118.2 48.0289 117.592 46.6588 116.481 45.6765C115.395 44.6941 113.999 44.203 112.293 44.203C110.561 44.203 109.139 44.6941 108.027 45.6765C106.916 46.6588 106.231 48.0289 105.972 49.7868Z" stroke="white" stroke-width="1.14"/>
</svg>
